<?xml version="1.0" encoding="utf-8"?>
<!-- Generator: Adobe Illustrator 24.0.1, SVG Export Plug-In . SVG Version: 6.00 Build 0)  -->
<svg version="1.1" id="Слой_1" xmlns="http://www.w3.org/2000/svg" xmlns:xlink="http://www.w3.org/1999/xlink" x="0px" y="0px"
	 viewBox="0 0 459 198" style="enable-background:new 0 0 459 198;" xml:space="preserve">
<style type="text/css">
	.st0{fill:#434952;}
	.st1{fill:#5E6570;}
	.st2{fill:#0F1618;}
	.st3{fill:#19242A;}
	.st4{fill:#1B1512;}
	.st5{fill:#ED1C24;}
</style>
<g>
	<polygon class="st0" points="229.5,0 0,198 112.1,122.2 147.4,145.2 182.2,122.6 229.5,154.7 	"/>
	<polygon class="st1" points="229.5,45.3 148.1,99 182.2,122.6 229.5,91.2 	"/>
	<polygon class="st2" points="229.5,0 459,198 346.9,122.2 311.6,145.2 276.8,122.6 229.5,154.7 	"/>
	<polygon class="st3" points="229.5,45.3 310.9,99 276.8,122.6 229.5,91.2 	"/>
	<g>
		<path class="st4" d="M69.8,182.8c-1.8,0-4.2-0.2-5.9-1.6c-1.7-1.5-1.9-3.6-1.9-5.1c0-2,0.2-4,1.8-5.4c1.8-1.6,4.7-1.7,6-1.7h7.4
			v2.1h-5.8c-2.1,0-4.8,0.1-5.8,1.3c-0.6,0.6-1,1.7-1,3.7c0,2.1,0.5,2.9,0.9,3.4c0.9,1.1,3.6,1.3,5.8,1.3h6.2v2.1H69.8z"/>
	</g>
	<polygon class="st4" points="109.1,168.2 100.8,182.8 103.2,182.8 109.1,172.2 112.5,178 107.8,178 106.9,180 112.5,180 
		114.3,182.8 117.8,182.8 	"/>
	<path class="st4" d="M142.2,168.7h11.7c0,0,5.6-0.1,5.6,5.2c0,5.3-4.9,6-7.3,5.8l1.7,3.1L152,186l-4.9-8.7c0,0,4.5,0,6.9,0
		c2.3,0,3.1-2,3-3.6s-1-3-2.8-2.9c-1.9,0.1-10.5,0-10.5,0L142.2,168.7z"/>
	<path class="st5" d="M339.3,168.7h11.7c0,0,5.6-0.1,5.6,5.2c0,5.3-4.9,6-7.3,5.8l1.7,3.1l-1.9,3.1l-4.9-8.7c0,0,4.5,0,6.9,0
		s3.1-2,3-3.6c-0.1-1.6-1-3-2.8-2.9c-1.9,0.1-10.5,0-10.5,0L339.3,168.7z"/>
	<path class="st4" d="M199.1,179.1c-0.2,2.4-1.4,3.8-6.5,3.8c-3,0-9.9,0-9.9,0v-14.6h1.2h1.2c2.4,0,7.8,0,9.8,0c1.9,0,4.2,2,4.1,4.3
		c-0.1,2.3-1.4,3-1.4,3S199.3,176.7,199.1,179.1z M197,172.6L197,172.6c0-1.1-0.9-1.9-1.9-1.9h-10v3.8h10
		C196.1,174.5,197,173.6,197,172.6z M197,178.7L197,178.7c0-1.1-0.9-1.9-1.9-1.9h-10v3.8h10C196.1,180.6,197,179.8,197,178.7z"/>
	<path class="st4" d="M227.9,183.1c-3.8,0-6.9-3.1-6.9-6.9v-1c0-3.8,3.1-6.9,6.9-6.9h4.9c3.8,0,6.9,3.1,6.9,6.9v1
		c0,3.8-3.1,6.9-6.9,6.9H227.9z M237.4,176.2v-1c0-2.5-2.1-4.6-4.6-4.6h-4.9c-2.5,0-4.6,2.1-4.6,4.6v1c0,2.5,2.1,4.6,4.6,4.6h4.9
		C235.3,180.8,237.4,178.8,237.4,176.2z"/>
	<path class="st5" d="M384.2,183.1c-3.8,0-6.9-3.1-6.9-6.9v-1c0-3.8,3.1-6.9,6.9-6.9h4.9c3.8,0,6.9,3.1,6.9,6.9v1
		c0,3.8-3.1,6.9-6.9,6.9H384.2z M393.7,176.2v-1c0-2.5-2.1-4.6-4.6-4.6h-4.9c-2.5,0-4.6,2.1-4.6,4.6v1c0,2.5,2.1,4.6,4.6,4.6h4.9
		C391.7,180.8,393.7,178.8,393.7,176.2z"/>
	<polygon class="st4" points="274.7,168.4 274.7,179.2 265.1,168.4 262.4,168.4 262.4,183.1 265.1,183.1 265.1,172.4 274.7,183.1 
		277.4,183.1 277.4,168.4 	"/>
	<path class="st5" d="M311.8,168.4L311.8,168.4l-9.2-0.1h-1.3h-1.3v14.7h2.7V171h9.2c0,0,1.8,0.1,1.7,2.5c-0.1,2.4-2.2,2.5-2.2,2.5
		h-7.1v2.6h7.1c0,0,4.4-0.7,4.5-5.4C315.8,169.6,313,168.7,311.8,168.4z"/>
</g>
</svg>
