<?xml version="1.0" encoding="UTF-8"?>
<svg width="32px" height="18px" viewBox="0 0 32 18" version="1.1" xmlns="http://www.w3.org/2000/svg" xmlns:xlink="http://www.w3.org/1999/xlink" xml:space="preserve"
	style="fill-rule:evenodd;clip-rule:evenodd;stroke-linejoin:round;stroke-miterlimit:1.41421;">
	<g id="us">
		<rect x="0" y="0" width="32" height="18" style="fill:#d70000;"/>
		<rect x="0" y="2" width="32" height="2" style="fill:#fff;"/>
		<rect x="0" y="6" width="32" height="2" style="fill:#fff;"/>
		<rect x="0" y="10" width="32" height="2" style="fill:#fff;"/>
		<rect x="0" y="14" width="32" height="2" style="fill:#fff;"/>
		<rect x="0" y="0" width="15" height="9" style="fill:#000e7a;"/>
		<g>
			<rect x="1" y="1" width="1" height="1" style="fill:#fff;"/>
			<rect x="3" y="1" width="1" height="1" style="fill:#fff;"/>
			<rect x="5" y="1" width="1" height="1" style="fill:#fff;"/>
			<rect x="7" y="1" width="1" height="1" style="fill:#fff;"/>
			<rect x="9" y="1" width="1" height="1" style="fill:#fff;"/>
			<rect x="11" y="1" width="1" height="1" style="fill:#fff;"/>
			<rect x="13" y="1" width="1" height="1" style="fill:#fff;"/>
			<rect x="2" y="3" width="1" height="1" style="fill:#fff;"/>
			<rect x="4" y="3" width="1" height="1" style="fill:#fff;"/>
			<rect x="6" y="3" width="1" height="1" style="fill:#fff;"/>
			<rect x="8" y="3" width="1" height="1" style="fill:#fff;"/>
			<rect x="10" y="3" width="1" height="1" style="fill:#fff;"/>
			<rect x="12" y="3" width="1" height="1" style="fill:#fff;"/>
			<rect x="1" y="5" width="1" height="1" style="fill:#fff;"/>
			<rect x="3" y="5" width="1" height="1" style="fill:#fff;"/>
			<rect x="5" y="5" width="1" height="1" style="fill:#fff;"/>
			<rect x="7" y="5" width="1" height="1" style="fill:#fff;"/>
			<rect x="9" y="5" width="1" height="1" style="fill:#fff;"/>
			<rect x="11" y="5" width="1" height="1" style="fill:#fff;"/>
			<rect x="13" y="5" width="1" height="1" style="fill:#fff;"/>
			<rect x="2" y="7" width="1" height="1" style="fill:#fff;"/>
			<rect x="4" y="7" width="1" height="1" style="fill:#fff;"/>
			<rect x="6" y="7" width="1" height="1" style="fill:#fff;"/>
			<rect x="8" y="7" width="1" height="1" style="fill:#fff;"/>
			<rect x="10" y="7" width="1" height="1" style="fill:#fff;"/>
			<rect x="12" y="7" width="1" height="1" style="fill:#fff;"/>
		</g>
	</g>
</svg>
