<svg width="80" height="80" xmlns="http://www.w3.org/2000/svg">

 <title/>
 <g>
  <title>background</title>
  <rect fill="none" id="canvas_background" height="402" width="582" y="-1" x="-1"/>
 </g>
 <g>
  <title>Layer 1</title>
  <polyline stroke-linecap="round" stroke-width="4px" stroke-linejoin="round" stroke="#000000" fill="none" id="svg_9" points="5.055 17.84 13.99 16.581 15.256 25.527" class="cls-5"/>
  <path stroke-linecap="round" stroke-width="4px" stroke-linejoin="round" stroke="#000000" fill="none" id="svg_10" d="m10.5653,58.9294a34.9876,34.9876 0 0 1 3.4247,-42.3485" class="cls-5"/>
  <polyline stroke-linecap="round" stroke-width="4px" stroke-linejoin="round" stroke="#000000" fill="none" id="svg_11" points="17.84 74.945 16.581 66.01 25.527 64.744" class="cls-5"/>
  <path stroke-linecap="round" stroke-width="4px" stroke-linejoin="round" stroke="#000000" fill="none" id="svg_12" d="m58.9294,69.4347a34.9876,34.9876 0 0 1 -42.3485,-3.4247" class="cls-5"/>
  <polyline stroke-linecap="round" stroke-width="4px" stroke-linejoin="round" stroke="#000000" fill="none" id="svg_13" points="74.945 62.16 66.01 63.419 64.744 54.473" class="cls-5"/>
  <path stroke-linecap="round" stroke-width="4px" stroke-linejoin="round" stroke="#000000" fill="none" id="svg_14" d="m69.4347,21.0706a34.9876,34.9876 0 0 1 -3.4247,42.3485" class="cls-5"/>
  <polyline stroke-linecap="round" stroke-width="4px" stroke-linejoin="round" stroke="#000000" fill="none" id="svg_15" points="62.16 5.055 63.419 13.99 54.473 15.256" class="cls-5"/>
  <path stroke-linecap="round" stroke-width="4px" stroke-linejoin="round" stroke="#000000" fill="none" id="svg_16" d="m21.0706,10.5653a34.9876,34.9876 0 0 1 42.3485,3.4247" class="cls-5"/>
 </g>
</svg>